<?xml version="1.0" encoding="UTF-8" standalone="no"?>
<svg
   class="ionicon"
   viewBox="0 0 512 512"
   version="1.1"
   id="svg3"
   sodipodi:docname="icon-gameplay.svg"
   inkscape:version="1.3.2 (091e20e, 2023-11-25, custom)"
   xmlns:inkscape="http://www.inkscape.org/namespaces/inkscape"
   xmlns:sodipodi="http://sodipodi.sourceforge.net/DTD/sodipodi-0.dtd"
   xmlns="http://www.w3.org/2000/svg"
   xmlns:svg="http://www.w3.org/2000/svg">
  <defs
     id="defs3" />
  <sodipodi:namedview
     id="namedview3"
     pagecolor="#ffffff"
     bordercolor="#000000"
     borderopacity="0.25"
     inkscape:showpageshadow="2"
     inkscape:pageopacity="0.0"
     inkscape:pagecheckerboard="0"
     inkscape:deskcolor="#d1d1d1"
     inkscape:zoom="1.6230469"
     inkscape:cx="256"
     inkscape:cy="256"
     inkscape:window-width="1920"
     inkscape:window-height="1027"
     inkscape:window-x="1912"
     inkscape:window-y="-8"
     inkscape:window-maximized="1"
     inkscape:current-layer="svg3" />
  <path
     d="M 467.51,248.83 C 449.11,165.65 421.82,112.59 378.08,99.66 A 91.5,91.5 0 0 0 352,96 c -26.89,0 -48.11,16 -96,16 -47.89,0 -69.15,-16 -96,-16 a 99.09,99.09 0 0 0 -27.2,3.66 C 89,112.59 61.94,165.7 43.33,248.83 c -19,84.91 -15.56,152 21.58,164.88 26,9 49.25,-9.61 71.27,-37 25,-31.2 55.79,-40.8 119.82,-40.8 64.03,0 93.62,9.6 118.66,40.8 22,27.41 46.11,45.79 71.42,37.16 41.02,-14.01 40.44,-79.13 21.43,-165.04 z"
     fill="none"
     stroke="currentColor"
     stroke-miterlimit="10"
     stroke-width="32"
     id="path1"
     style="stroke:#00ffff" />
  <circle
     cx="292"
     cy="224"
     r="20"
     id="circle1"
     style="fill:#00ffff" />
  <path
     d="M 336,288 A 20,20 0 1 1 356,268.05 20,20 0 0 1 336,288 Z"
     id="path2"
     style="fill:#00ffff" />
  <circle
     cx="336"
     cy="180"
     r="20"
     id="circle2"
     style="fill:#00ffff" />
  <circle
     cx="380"
     cy="224"
     r="20"
     id="circle3"
     style="fill:#00ffff" />
  <path
     fill="none"
     stroke="currentColor"
     stroke-linecap="round"
     stroke-linejoin="round"
     stroke-width="32"
     d="m 160,176 v 96 m 48,-48 h -96"
     id="path3"
     style="stroke:#00ffff" />
</svg>
