<?xml version="1.0" encoding="UTF-8" standalone="no" ?>
<!DOCTYPE svg PUBLIC "-//W3C//DTD SVG 1.1//EN" "http://www.w3.org/Graphics/SVG/1.1/DTD/svg11.dtd">
<svg xmlns="http://www.w3.org/2000/svg" xmlns:xlink="http://www.w3.org/1999/xlink" version="1.1" width="500" height="500" viewBox="0 0 500 500" xml:space="preserve">
<desc>Created with Fabric.js 5.2.4</desc>
<defs>
</defs>
<rect x="0" y="0" width="100%" height="100%" fill="transparent"></rect>
<g transform="matrix(1 0 0 1 250 250)" id="c2d3a430-da35-40d8-8031-63090283f2ef"  >
<rect style="stroke: none; stroke-width: 1; stroke-dasharray: none; stroke-linecap: butt; stroke-dashoffset: 0; stroke-linejoin: miter; stroke-miterlimit: 4; fill: rgb(255,255,255); fill-rule: nonzero; opacity: 1; visibility: hidden;" vector-effect="non-scaling-stroke"  x="-250" y="-250" rx="0" ry="0" width="500" height="500" />
</g>
<g transform="matrix(Infinity NaN NaN Infinity 0 0)" id="eeb85d57-35ae-40f9-84b4-88d630502ee6"  >
</g>
<g transform="matrix(23.8 0 0 23.8 250 250)" id="2ecd1873-0bdb-4f16-9298-509acb94399f"  >
<path style="stroke: rgb(0,255,255); stroke-width: 0; stroke-dasharray: none; stroke-linecap: butt; stroke-dashoffset: 0; stroke-linejoin: miter; stroke-miterlimit: 4; fill: rgb(0,255,255); fill-rule: nonzero; opacity: 1;" vector-effect="non-scaling-stroke"  transform=" translate(-11.83, -11.91)" d="M 13.496 9.75 C 14.247 9.75 14.983 9.374 15.409 8.69 C 16.066000000000003 7.637 15.743 6.247999999999999 14.691 5.59 C 13.638000000000002 4.934 12.249 5.255 11.591000000000001 6.308 L 11.591000000000001 6.308 C 10.934000000000001 7.362 11.257000000000001 8.751999999999999 12.31 9.41 C 12.679 9.639 13.09 9.75 13.496 9.75 Z M 12.864 7.104 C 13.083 6.753 13.547 6.644 13.897 6.865 C 14.067 6.970000000000001 14.186 7.136 14.231 7.332 C 14.276 7.528 14.243 7.728 14.137 7.898 C 13.919 8.248999999999999 13.455 8.357 13.104000000000001 8.137 C 12.753 7.918 12.646 7.454000000000001 12.864 7.104000000000001 Z M 8.535 12.761 C 8.743 12.761 8.953 12.737 9.161 12.689 C 9.876 12.523 10.484 12.088000000000001 10.873 11.465 C 11.261999999999999 10.841999999999999 11.385 10.105 11.219 9.389 C 11.052999999999999 8.673 10.619 8.065999999999999 9.995 7.677 C 9.372 7.287999999999999 8.636 7.1659999999999995 7.918999999999999 7.33 C 7.203999999999999 7.496 6.594999999999999 7.931 6.206999999999999 8.554 L 6.206999999999999 8.554 C 5.817999999999999 9.178 5.6949999999999985 9.915000000000001 5.860999999999999 10.631 C 6.026999999999999 11.346 6.461999999999999 11.954 7.084999999999999 12.343 C 7.526999999999999 12.618 8.027 12.761 8.534999999999998 12.761 Z M 7.479 9.347999999999999 C 7.656 9.065 7.933 8.867999999999999 8.258000000000001 8.791999999999998 C 8.586 8.714999999999998 8.918000000000001 8.770999999999997 9.201 8.948999999999998 C 9.484 9.125999999999998 9.682 9.401999999999997 9.758000000000001 9.726999999999999 C 9.833 10.051999999999998 9.778 10.386999999999999 9.601 10.669999999999998 C 9.424000000000001 10.952999999999998 9.148000000000001 11.149999999999999 8.823 11.225999999999999 C 8.498000000000001 11.302999999999999 8.163 11.247 7.8790000000000004 11.068999999999999 C 7.596 10.892999999999999 7.399000000000001 10.616999999999999 7.323 10.292 C 7.247000000000001 9.967 7.303000000000001 9.632 7.48 9.347999999999999 Z M 10.318999999999999 13.770999999999999 C 9.264999999999999 13.114999999999998 7.8759999999999994 13.437 7.218999999999999 14.488999999999999 L 7.218999999999999 14.488999999999999 C 6.561999999999999 15.543 6.885 16.933 7.938 17.590999999999998 C 8.307 17.819999999999997 8.718 17.930999999999997 9.123999999999999 17.930999999999997 C 9.876 17.930999999999997 10.610999999999999 17.554999999999996 11.036999999999999 16.871 C 11.693999999999999 15.818999999999999 11.370999999999999 14.428999999999998 10.318999999999999 13.770999999999999 Z M 9.764 16.078 C 9.546999999999999 16.429 9.082999999999998 16.538 8.731 16.317 C 8.379999999999999 16.098 8.273 15.634 8.491 15.284 C 8.709 14.934000000000001 9.173 14.824 9.525 15.045 C 9.876000000000001 15.264 9.983 15.727 9.764000000000001 16.078 Z M 20.023 4.215999999999999 C 19.281 3.9639999999999995 18.495 4.124 17.915 4.571999999999999 C 17.730999999999998 4.387999999999999 17.544 4.2059999999999995 17.328 4.039999999999999 C 17.11 3.8769999999999993 16.892 3.734999999999999 16.666999999999998 3.595999999999999 C 14.565999999999999 2.281999999999999 12.051999999999998 1.9119999999999993 9.587999999999997 2.5589999999999993 C 7.141999999999998 3.1999999999999993 5.037999999999998 4.763999999999999 3.6619999999999973 6.964999999999999 C 0.8179999999999974 11.527 2.0249999999999972 17.436999999999998 6.349999999999998 20.137 C 7.0589999999999975 20.581 7.832999999999998 20.92 8.645999999999997 21.144000000000002 C 9.042999999999997 21.254 9.446999999999997 21.308000000000003 9.847999999999997 21.308000000000003 C 10.987999999999998 21.308000000000003 12.102999999999998 20.873000000000005 12.973999999999997 20.087000000000003 C 13.103999999999997 20.292 13.238999999999997 20.487000000000002 13.380999999999997 20.657000000000004 C 13.885999999999997 21.263000000000005 14.365999999999996 21.570000000000004 14.812999999999997 21.570000000000004 C 14.894999999999998 21.570000000000004 14.975999999999997 21.559000000000005 15.055999999999997 21.539000000000005 C 15.681999999999997 21.374000000000006 15.752999999999997 20.761000000000006 15.790999999999997 20.432000000000006 C 15.827999999999998 20.110000000000007 15.869999999999997 19.745000000000005 16.141 19.333000000000006 C 16.354 19.008000000000006 16.573999999999998 18.866000000000007 16.826999999999998 18.703000000000007 C 17.156 18.491000000000007 17.563999999999997 18.227000000000007 17.804 17.635000000000005 C 18.063 16.995000000000005 18.019 16.245000000000005 17.759999999999998 15.596000000000005 C 17.778 15.588000000000006 17.796 15.585000000000006 17.813999999999997 15.577000000000005 C 18.353999999999996 15.312000000000005 18.757999999999996 14.853000000000005 18.952999999999996 14.285000000000005 L 21.422999999999995 7.0750000000000055 C 21.824999999999996 5.901000000000005 21.196999999999996 4.619000000000005 20.023999999999994 4.217000000000006 Z M 9.048 19.697 C 8.363 19.509 7.741 19.237 7.147 18.864 C 3.5220000000000002 16.601 2.5300000000000002 11.619 4.936 7.759 C 6.107 5.885 7.894 4.553000000000001 9.969000000000001 4.01 C 12.031 3.4699999999999998 14.126000000000001 3.776 15.876000000000001 4.869 C 16.067 4.987 16.25 5.1049999999999995 16.424 5.236 C 16.677 5.428999999999999 16.887999999999998 5.645 17.078 5.87 L 14.696 12.825 C 14.533 13.300999999999998 14.546 13.792 14.69 14.236999999999998 C 13.754 14.570999999999998 12.894 15.329999999999998 12.484 16.211 C 12.119 16.994 12.121 17.825999999999997 12.319 18.595999999999997 C 11.503 19.598999999999997 10.257000000000001 20.035999999999998 9.05 19.695999999999998 Z M 16.413 17.070999999999998 C 16.357 17.209 16.288 17.264 16.014 17.441 C 15.702 17.642 15.276 17.918 14.888 18.506999999999998 C 14.641 18.881999999999998 14.504 19.24 14.423 19.552999999999997 C 14.225 19.289999999999996 14.017 18.943999999999996 13.868 18.535999999999998 C 13.704 18.089999999999996 13.568 17.433999999999997 13.843 16.843999999999998 C 14.092 16.31 14.669 15.806999999999999 15.246 15.620999999999997 C 15.345 15.588999999999997 15.494 15.551999999999996 15.647 15.551999999999996 C 15.758000000000001 15.551999999999996 15.872 15.571999999999996 15.971 15.626999999999995 C 16.362000000000002 15.845999999999995 16.598 16.614999999999995 16.413 17.069999999999997 Z M 20.003 6.587999999999997 L 17.533 13.797999999999998 C 17.468 13.986999999999998 17.333000000000002 14.140999999999998 17.154 14.228999999999997 C 16.974 14.315999999999997 16.77 14.329999999999998 16.581 14.263999999999998 C 16.189999999999998 14.129999999999997 15.981 13.702999999999998 16.115 13.311999999999998 L 18.584999999999997 6.101999999999998 C 18.691 5.790999999999998 18.982999999999997 5.594999999999998 19.294999999999998 5.594999999999998 C 19.374999999999996 5.594999999999998 19.456999999999997 5.607999999999998 19.537 5.635999999999998 C 19.929 5.769999999999999 20.137999999999998 6.197999999999999 20.003999999999998 6.587999999999998 Z" stroke-linecap="round" />
</g>
</svg>