<?xml version="1.0" encoding="UTF-8" standalone="no" ?>
<!DOCTYPE svg PUBLIC "-//W3C//DTD SVG 1.1//EN" "http://www.w3.org/Graphics/SVG/1.1/DTD/svg11.dtd">
<svg xmlns="http://www.w3.org/2000/svg" xmlns:xlink="http://www.w3.org/1999/xlink" version="1.1" width="1080" height="1080" viewBox="0 0 1080 1080" xml:space="preserve">
<desc>Created with Fabric.js 5.2.4</desc>
<defs>
</defs>
<g transform="matrix(1 0 0 1 540 540)" id="c4426da9-71af-4f04-9a36-87dc9ae9e8d7"  >
<rect style="stroke: none; stroke-width: 1; stroke-dasharray: none; stroke-linecap: butt; stroke-dashoffset: 0; stroke-linejoin: miter; stroke-miterlimit: 4; fill: rgb(255,255,255); fill-rule: nonzero; opacity: 1; visibility: hidden;" vector-effect="non-scaling-stroke"  x="-540" y="-540" rx="0" ry="0" width="1080" height="1080" />
</g>
<g transform="matrix(1 0 0 1 540 540)" id="2e8259bb-dc5d-4f70-83a5-f19eea5b4780"  >
</g>
<g transform="matrix(1 0 0 1 540 540)"  >
<g style="" vector-effect="non-scaling-stroke"   >
		<g transform="matrix(1 0 0 1 0 -32)"  >
<path style="stroke: none; stroke-width: 1; stroke-dasharray: none; stroke-linecap: butt; stroke-dashoffset: 0; stroke-linejoin: miter; stroke-miterlimit: 4; fill: rgb(0,255,255); fill-rule: nonzero; opacity: 1;" vector-effect="non-scaling-stroke"  transform=" translate(-256, -224)" d="M 308.076 203.929 C 297.01800000000003 203.929 288 212.943 288 224.03300000000002 C 288 235.122 297.019 244.14000000000001 308.076 244.14000000000001 C 319.207 244.14000000000001 328.22400000000005 235.121 328.22400000000005 224.03300000000002 C 328.225 212.942 319.20700000000005 203.92900000000003 308.076 203.92900000000003 z M 351.988 247.878 C 340.93 247.878 331.935 256.827 331.935 267.984 C 331.935 279.048 340.93 288 351.988 288 C 363.134 288 372.136 279.049 372.136 267.984 C 372.137 256.827 363.134 247.878 351.988 247.878 z M 135.234 184.367 C 113.594 184.367 96 202.17 96 224.01 C 96 245.875 113.594 263.633 135.234 263.633 C 156.889 263.633 174.483 245.87499999999997 174.483 224.01 C 174.483 202.17 156.89000000000001 184.367 135.234 184.367 z M 135.12300000000002 243.457 C 124.43500000000002 243.457 115.78000000000002 234.736 115.78000000000002 224.01 C 115.78000000000002 213.285 124.43500000000002 204.569 135.12300000000002 204.569 C 145.764 204.569 154.42000000000002 213.286 154.42000000000002 224.01 C 154.42000000000002 234.736 145.764 243.457 135.12300000000002 243.457 z M 351.988 160 C 340.93 160 331.935 169.014 331.935 180.107 C 331.935 191.197 340.93 200.19 351.988 200.19 C 363.134 200.19 372.136 191.197 372.136 180.107 C 372.137 169.014 363.134 160 351.988 160 z M 395.947 203.929 C 384.842 203.929 375.846 212.943 375.846 224.03300000000002 C 375.846 235.122 384.841 244.14000000000001 395.947 244.14000000000001 C 407.00600000000003 244.14000000000001 416 235.121 416 224.03300000000002 C 416 212.942 407.006 203.92900000000003 395.947 203.92900000000003 z" stroke-linecap="round" />
</g>
		<g transform="matrix(1 0 0 1 0 0)"  >
<path style="stroke: none; stroke-width: 1; stroke-dasharray: none; stroke-linecap: butt; stroke-dashoffset: 0; stroke-linejoin: miter; stroke-miterlimit: 4; fill: rgb(0,255,255); fill-rule: nonzero; opacity: 1;" vector-effect="non-scaling-stroke"  transform=" translate(-256, -256)" d="M 466.279 248.866 C 445.122 160.395 422.648 113.37700000000001 377.825 100.036 C 368.06 97.135 359.748 96 352.076 96 C 324.478 96 305.13800000000003 110.68299999999999 255.99600000000004 110.68299999999999 C 206.82200000000003 110.68299999999999 187.49400000000003 96.002 159.93400000000003 96 C 152.26900000000003 96 143.97100000000003 97.135 134.21300000000002 100.036 C 89.34400000000002 113.377 66.87100000000002 160.395 45.752000000000024 248.866 C 24.571000000000023 337.339 28.418000000000024 401.22900000000004 53.431000000000026 413.155 C 57.502 415.1 61.662 416 65.885 416 C 87.57900000000001 416 111.024 392.162 133.544 363.953 C 159.198 331.848 165.658 331 243.822 331 L 268.165 331 C 346.312 331 352.793 331.846 378.447 363.953 C 400.973 392.15999999999997 424.41700000000003 415.957 446.112 415.957 C 450.338 415.957 454.49600000000004 415.078 458.569 413.134 C 483.574 401.208 487.421 337.339 466.279 248.866 z M 451.677 398.716 C 449.84200000000004 399.592 448.07300000000004 400 446.113 400 C 440.091 400 432.036 395.951 422.818 388.292 C 413.637 380.662 403.51099999999997 369.78299999999996 390.948 354.053 C 377.989 337.83299999999997 367.28099999999995 325.824 347.41999999999996 320.104 C 330.77299999999997 315.311 308.79599999999994 315 268.16599999999994 315 L 243.82299999999995 315 C 203.18999999999994 315 181.21199999999996 315.311 164.56399999999996 320.105 C 144.71099999999996 325.824 134.00399999999996 337.79 121.04099999999997 354.01300000000003 C 108.48499999999997 369.74 98.36099999999996 380.64000000000004 89.17899999999997 388.271 C 79.96299999999998 395.92900000000003 71.90899999999998 399.98900000000003 65.88599999999997 399.98900000000003 C 63.953999999999965 399.98900000000003 62.13499999999997 399.574 60.31799999999997 398.70700000000005 C 50.76199999999997 394.15000000000003 37.74599999999997 351.03400000000005 61.31599999999997 252.57800000000006 C 82.70299999999997 162.98700000000008 103.69699999999997 125.80100000000006 138.77499999999998 115.37100000000007 C 146.408 113.10100000000007 153.32899999999998 111.99900000000007 159.93399999999997 111.99900000000007 C 169.67599999999996 111.99900000000007 178.53299999999996 114.31600000000006 189.74599999999998 117.24800000000006 C 205.81599999999997 121.45100000000006 225.81799999999998 126.68300000000006 255.998 126.68300000000006 C 286.146 126.68300000000006 306.144 121.45500000000007 322.21299999999997 117.25400000000006 C 333.44199999999995 114.31800000000007 342.313 112.00000000000006 352.078 112.00000000000006 C 358.69599999999997 112.00000000000006 365.62899999999996 113.10400000000006 373.263 115.37100000000005 C 408.29999999999995 125.79900000000005 429.293 162.98800000000006 450.719 252.58500000000004 C 474.24399999999997 351.04100000000005 461.23 394.16 451.677 398.716 z" stroke-linecap="round" />
</g>
</g>
</g>
</svg>