<?xml version="1.0" encoding="UTF-8" standalone="no"?>
<svg
   class="ionicon"
   viewBox="0 0 512 512"
   version="1.1"
   id="svg5"
   sodipodi:docname="icon-art.svg"
   inkscape:version="1.3.2 (091e20e, 2023-11-25, custom)"
   xmlns:inkscape="http://www.inkscape.org/namespaces/inkscape"
   xmlns:sodipodi="http://sodipodi.sourceforge.net/DTD/sodipodi-0.dtd"
   xmlns="http://www.w3.org/2000/svg"
   xmlns:svg="http://www.w3.org/2000/svg">
  <defs
     id="defs5" />
  <sodipodi:namedview
     id="namedview5"
     pagecolor="#ffffff"
     bordercolor="#000000"
     borderopacity="0.25"
     inkscape:showpageshadow="2"
     inkscape:pageopacity="0.0"
     inkscape:pagecheckerboard="0"
     inkscape:deskcolor="#d1d1d1"
     inkscape:zoom="1.6230469"
     inkscape:cx="256"
     inkscape:cy="256"
     inkscape:window-width="1920"
     inkscape:window-height="1027"
     inkscape:window-x="1912"
     inkscape:window-y="-8"
     inkscape:window-maximized="1"
     inkscape:current-layer="svg5" />
  <path
     d="m 430.11,347.9 c -6.6,-6.1 -16.3,-7.6 -24.6,-9 -11.5,-1.9 -15.9,-4 -22.6,-10 -14.3,-12.7 -14.3,-31.1 0,-43.8 l 30.3,-26.9 c 46.4,-41 46.4,-108.2 0,-149.2 -34.2,-30.1 -80.1,-45 -127.8,-45 -55.7,0 -113.9,20.3 -158.8,60.1 -83.5,73.8 -83.5,194.7 0,268.5 41.5,36.7 97.5,55 152.9,55.4 h 1.7 c 55.4,0 110,-17.9 148.8,-52.4 14.4,-12.7 11.99,-36.6 0.1,-47.7 z"
     fill="none"
     stroke="currentColor"
     stroke-miterlimit="10"
     stroke-width="32"
     id="path1"
     style="stroke:#00ffff" />
  <circle
     cx="144"
     cy="208"
     r="32"
     id="circle1"
     style="fill:#00ffff" />
  <circle
     cx="152"
     cy="311"
     r="32"
     id="circle2"
     style="fill:#00ffff" />
  <circle
     cx="224"
     cy="144"
     r="32"
     id="circle3"
     style="fill:#00ffff" />
  <circle
     cx="256"
     cy="367"
     r="48"
     id="circle4"
     style="fill:#00ffff" />
  <circle
     cx="328"
     cy="144"
     r="32"
     id="circle5"
     style="fill:#00ffff" />
</svg>
